HIERARCHY
ROOT Hips
{
  OFFSET 62.8612 92.6859 23.4994
  CHANNELS 6 Xposition Yposition Zposition Zrotation Xrotation Yrotation
  JOINT RightUpLeg
  {
    OFFSET -8.9458 -8.66707 0.101652
    CHANNELS 3 Zrotation Xrotation Yrotation
    JOINT RightLeg
    {
      OFFSET 0 -44.4227 1.3727
      CHANNELS 3 Zrotation Xrotation Yrotation
      JOINT RightFoot
      {
        OFFSET 0.253549 -42.0924 -1.46059
        CHANNELS 3 Zrotation Xrotation Yrotation
        JOINT RightToes
        {
          OFFSET 0.04 -4.41509 8.4991
          CHANNELS 3 Zrotation Xrotation Yrotation
          End Site
          {
            OFFSET -0.08 -0.137448 9.77979
          }
        }
      }
    }
  }
  JOINT Spine
  {
    OFFSET 0 11.8905 0
    CHANNELS 3 Zrotation Xrotation Yrotation
    JOINT Spine1
    {
      OFFSET 0 25.6574 0.127663
      CHANNELS 3 Zrotation Xrotation Yrotation
      JOINT HEad
      {
        OFFSET 0 8.73416 0.011341
        CHANNELS 3 Zrotation Xrotation Yrotation
        End Site
        {
          OFFSET -0.29 12.7742 2.51395
        }
      }
      JOINT LeftShoulder1
      {
        OFFSET 8.99 -0.362252 -0.22
        CHANNELS 3 Zrotation Xrotation Yrotation
        JOINT LeftArm
        {
          OFFSET 10.2827 -0.00338 0.322123
          CHANNELS 3 Zrotation Xrotation Yrotation
          JOINT LeftForeArm
          {
            OFFSET 32.7669 0.099144 -1.42434
            CHANNELS 3 Zrotation Xrotation Yrotation
            JOINT LeftHand
            {
              OFFSET 27.5643 0.085362 1.02216
              CHANNELS 3 Zrotation Xrotation Yrotation
              End Site
              {
                OFFSET 16.7443 -0.6 1.50291
              }
            }
          }
        }
      }
      JOINT RightShoulder
      {
        OFFSET -8.99 -0.362252 -0.22
        CHANNELS 3 Zrotation Xrotation Yrotation
        JOINT RightArm
        {
          OFFSET -10.2827 -0.00338 0.322123
          CHANNELS 3 Zrotation Xrotation Yrotation
          JOINT RightForeArm
          {
            OFFSET -32.8971 0.099144 -1.42434
            CHANNELS 3 Zrotation Xrotation Yrotation
            JOINT RightHand
            {
              OFFSET -27.4921 0.085362 1.02216
              CHANNELS 3 Zrotation Xrotation Yrotation
              End Site
              {
                OFFSET -16.6312 -0.6 1.50291
              }
            }
          }
        }
      }
    }
  }
  JOINT LeftUpLeg
  {
    OFFSET 8.9458 -8.66707 0.101652
    CHANNELS 3 Zrotation Xrotation Yrotation
    JOINT LeftLeg
    {
      OFFSET 0 -44.4227 1.3727
      CHANNELS 3 Zrotation Xrotation Yrotation
      JOINT LeftFoot
      {
        OFFSET -0.253549 -42.0924 -1.46059
        CHANNELS 3 Zrotation Xrotation Yrotation
        JOINT LeftToes
        {
          OFFSET -0.04 -4.41509 8.4991
          CHANNELS 3 Zrotation Xrotation Yrotation
          End Site
          {
            OFFSET 0.08 -0.047448 9.77979
          }
        }
      }
    }
  }
}
MOTION
Frames:	12
Frame Time:	0.0166667
54.0438 94.2718 32.3927 2.44873 5.32263 -172.8 -15.0098 -28.6234 6.81846 8.73278 39.6462 2.71368 25.1041 16.0115 -5.25341 -8.95539 -36.7344 2.39099 -0.738305 7.82721 -5.5572 -5.68167 15.4199 -9.93289 16.9914 4.78433 -4.40258 -1.76556e-031 -3.18055e-015 -3.18055e-015 -80.1841 -7.13205 -50.6501 -14.4773 42.1708 -110.594 6.54677 9.62745 -1.04006 25.0733 0.992168 1.38212 73.7345 -31.0067 42.3992 -17.2752 27.8781 149.751 -12.3054 11.3028 -18.328 19.1028 1.36303 -7.87902 -20.8508 30.1755 23.5709 -1.59363 12.9537 0.192066 48.269 -53.7621 34.387 
54.5252 94.2969 32.1439 2.9318 5.52739 -171.965 -14.7111 -28.8902 7.4161 8.69217 39.5548 5.09425 26.4527 23.2455 -7.19304 -10.783 -47.3354 3.73054 -0.463439 7.80854 -5.82839 -5.10873 15.3728 -10.5285 16.1817 4.54186 -4.33576 1.98785e-015 0 -3.18055e-015 -80.5941 -7.74991 -49.7852 -14.7158 42.6334 -111.067 6.54677 9.62745 -1.04006 25.1059 1.0279 1.51137 73.6928 -32.4602 41.5693 -18.0906 26.9813 151.12 -7.67021 10.9317 -21.4848 19.9497 1.35459 -8.83215 -20.6613 29.9496 23.3068 -1.39488 13.1383 0.157595 48.2509 -53.4763 34.6712 
55.0274 94.5382 31.7053 3.0756 5.53845 -170.915 -14.4932 -29.4448 6.75609 6.88743 41.2236 11.1282 26.1544 20.6324 -6.51812 -11.1857 -41.9438 0.892729 -0.0468833 7.69819 -5.99411 -4.94646 15.086 -10.8632 15.5971 4.84909 -5.0411 -1.98785e-015 -3.18055e-015 -7.95139e-016 -80.3048 -7.46373 -48.5923 -14.4707 42.4372 -111.6 6.54677 9.62745 -1.04006 25.2718 0.991838 1.35908 71.6689 -32.7226 40.0205 -18.6373 24.7406 151.453 -4.53791 10.5625 -24.3547 20.3067 1.39052 -9.24458 -19.784 29.416 21.9631 -1.10732 13.8305 0.108126 48.1199 -52.6884 35.3573 
55.7582 94.9359 31.1094 3.24636 5.27092 -169.307 -14.8405 -29.2297 6.94427 6.80244 41.277 11.9631 24.2058 16.6735 -5.1975 -9.70926 -35.7428 0.597049 0.113119 7.29626 -6.13252 -4.58635 14.3015 -11.2214 15.3142 5.81826 -5.8055 3.18055e-015 3.18055e-015 7.95139e-016 -80.1685 -6.8046 -47.2061 -14.6086 42.3062 -111.411 6.54677 9.62745 -1.04006 25.5457 0.792973 0.601044 68.7519 -32.1241 38.3351 -19.594 22.4059 151.623 -2.52848 10.2726 -28.0637 21.1675 0.528919 -9.87824 -19.5188 29.7561 19.8374 -3.18351 12.5081 0.467227 44.2674 -51.3074 31.8191 
56.4675 95.3575 30.3912 3.50078 4.80058 -167.748 -15.2657 -28.5963 7.4267 6.8771 40.0822 9.1348 21.9226 13.5451 -4.11575 -8.6253 -29.2308 -0.674974 0.37111 7.01932 -5.9127 -4.33775 13.7383 -10.8169 15.1627 6.11388 -7.38891 -3.37934e-015 3.18055e-015 -7.95139e-016 -79.8753 -4.84878 -46.0057 -14.288 41.8941 -111.742 6.54677 9.62745 -1.04006 25.9981 0.180193 -1.64654 68.1345 -34.047 38.5943 -20.256 22.4229 152.084 2.78893 9.06229 -31.4623 21.9009 -0.397876 -9.255 -18.1883 29.8966 17.2575 -4.43852 14.4655 0.750884 44.6134 -51.7562 31.7917 
57.2959 95.7988 29.638 3.32387 4.26789 -165.639 -16.6851 -26.8573 7.43938 7.45421 36.8745 2.6167 17.9318 14.4277 -3.49262 -7.42797 -30.0239 2.06859 0.148625 6.65003 -5.7948 -4.14579 13.0951 -10.6583 15.7194 6.63474 -9.28691 -1.68967e-015 4.77083e-015 -1.98785e-016 -79.512 -3.00086 -45.3235 -14.1577 41.4527 -111.577 6.54677 9.62745 -1.04006 26.0541 -0.337901 -3.51265 68.1436 -36.9297 39.6436 -21.4985 23.8134 151.423 5.30162 8.37014 -33.1169 22.5945 -2.29451 -9.01109 -18.0443 31.2557 14.7904 -5.89301 14.1067 1.01464 41.0174 -50.1712 28.6053 
58.0692 95.9395 28.9704 3.85117 4.0594 -163.376 -17.1954 -25.1891 7.75794 8.64108 33.9675 -3.99345 12.2984 12.9799 -2.24943 -7.42439 -24.7709 -0.747555 0.797121 6.47219 -5.65188 -3.54012 12.7124 -10.377 15.9006 6.18043 -11.1569 1.98785e-015 0 5.96354e-016 -78.7528 -1.47749 -44.6901 -14.3491 41.4036 -111.286 6.54677 9.62745 -1.04006 26.0454 -0.866497 -5.41644 68.4232 -39.8058 41.9022 -22.9155 25.1418 150.041 8.93603 7.33892 -34.2588 24.558 -4.73726 -8.70948 -18.7356 33.1025 13.8752 -6.85771 16.8829 1.34633 41.6591 -52.411 27.0777 
58.8476 95.9852 28.3838 3.86162 3.76098 -160.991 -18.1477 -23.5829 7.91563 8.80992 31.7812 -8.92636 11.5013 7.72266 -1.61467 -3.46024 -9.7827 -1.48938 1.31327 6.19094 -5.5172 -3.35828 12.178 -10.0981 16.071 5.77292 -13.2949 1.98785e-016 -1.59028e-015 -0 -77.9608 0.628397 -44.2908 -13.9257 40.9143 -111.454 6.54677 9.62745 -1.04006 24.8003 -0.321523 -3.52699 66.3533 -42.4736 42.4564 -25.5249 22.6379 144.201 7.65833 7.75982 -33.2299 25.7913 -7.62465 -8.75151 -19.6271 35.0012 12.4658 -9.31733 21.1171 2.19233 45.353 -54.5154 29.8191 
59.4752 95.8006 27.9457 3.61251 4.01179 -158.099 -19.693 -21.0592 7.63745 9.57315 29.2364 -11.2816 11.8519 3.80646 -1.28475 0.328219 4.19718 -3.34519 2.03988 6.27749 -5.76876 -2.91301 12.4019 -10.5648 15.9225 4.51256 -14.8655 -2.5842e-015 1.59028e-015 -0 -77.0639 1.04198 -44.8988 -13.9611 40.9127 -111.478 6.54677 9.62745 -1.04006 23.6286 -0.260715 -3.36275 66.7664 -43.2247 46.7122 -29.723 22.9518 137.106 4.56789 8.56612 -32.9284 26.4168 -10.0294 -8.77809 -19.0144 36.6418 10.4856 -13.0258 27.668 3.84374 53.0082 -59.4606 34.2995 
60.0161 95.4758 27.5801 3.16128 4.21175 -156.217 -21.0496 -19.1796 7.82798 10.6717 27.3467 -9.55421 11.7129 6.26545 -1.50468 -2.73581 -1.97256 -6.96941 2.58386 6.25024 -5.82922 -2.83534 12.3931 -10.6257 15.487 4.43098 -16.3485 2.38542e-015 3.18055e-015 -0 -76.1974 1.39217 -45.2869 -13.2187 40.3975 -112.307 6.54677 9.62745 -1.04006 22.5718 0.283448 -1.20617 64.6046 -42.8857 51.1288 -32.5892 24.3958 124.593 1.40492 9.38999 -31.5781 26.001 -11.336 -6.96931 -15.4851 38.1751 6.21686 -18.8314 33.3187 6.58964 61.8922 -64.466 39.5145 
60.7461 94.6254 27.0297 2.2382 4.57211 -155.271 -22.7877 -16.9392 8.16316 13.025 26.8523 -12.6802 12.2662 2.8427 -1.23012 -2.53843 -6.88904 -1.28503 1.82629 6.1623 -5.55449 -3.05596 12.305 -10.072 15.3155 4.66363 -18.0893 -3.57812e-015 0 -0 -76.0352 1.33619 -46.1725 -13.2097 40.4854 -112.377 6.54677 9.62745 -1.04006 20.9441 0.801975 1.08433 47.6915 -30.1954 48.8808 -31.8729 12.7881 96.1223 5.27949 8.52294 -30.4429 25.4585 -11.8234 -5.66786 -12.82 40.2727 2.79943 -22.8567 34.1076 8.23486 66.461 -66.5802 42.4207 
61.0416 93.9463 26.8413 1.33849 5.17255 -156.003 -23.4776 -16.8939 7.00653 12.8636 29.7789 -11.1407 14.6192 -5.97189 -0.378465 0.866134 4.39528 -1.30815 2.12631 6.15068 -4.99479 -3.47212 12.2069 -8.66211 15.5421 5.49408 -19.7182 4.41391e-032 1.59028e-015 -1.59028e-015 -76.1193 0.883419 -47.0833 -13.5166 40.8988 -112.238 6.54677 9.62745 -1.04006 18.2812 1.51401 4.87755 29.4807 -17.0427 48.1821 -33.3346 1.79903 62.9466 -2.63404 10.2862 -27.5797 25.0932 -10.8262 -6.16101 -13.0642 41.2056 2.29101 -23.759 32.2629 8.18647 67.3525 -66.6104 43.3418 
